HIERARCHY
ROOT Hips
{
	OFFSET 0.000000 0.000000 0.000000 
	CHANNELS 6 Xposition Yposition Zposition Yrotation Zrotation Xrotation 
	JOINT Lumbar
	{
		OFFSET 0.000000 0.000000 0.000000 
		CHANNELS 3 Zrotation Xrotation Yrotation
		JOINT Neck
		{
			OFFSET 0.000000 0.445665 0.000000 
			CHANNELS 3 Zrotation Xrotation Yrotation
			End Site
			{
				OFFSET 0.000000 0.227535 0.000000 
			}
		}
		JOINT RightShoulder
		{
			OFFSET 0.019635 0.377685 0.194865 
			CHANNELS 3 Zrotation Xrotation Yrotation
			JOINT RightElbow
			{
				OFFSET 0.000000 -0.243375 0.000000 
				CHANNELS 2 Zrotation Yrotation
				JOINT RightWrist
				{
					OFFSET 0.000000 -0.264825 0.000000 
					CHANNELS 2 Zrotation Xrotation
					End Site
					{
						OFFSET 0.006600 -0.176220 0.000990 
					}
				}
			}
		}
		JOINT LeftShoulder
		{
			OFFSET 0.019635 0.377685 -0.194865 
			CHANNELS 3 Zrotation Xrotation Yrotation
			JOINT LeftElbow
			{
				OFFSET 0.000000 -0.243375 0.000000 
				CHANNELS 2 Zrotation Yrotation
				JOINT LeftWrist
				{
					OFFSET 0.000000 -0.264825 0.000000 
					CHANNELS 2 Zrotation Xrotation
					End Site
					{
						OFFSET 0.006600 -0.176220 -0.000990 
					}
				}
			}
		}
	}
	JOINT RightHip
	{
		OFFSET 0.052140 -0.069960 0.075570 
		CHANNELS 3 Zrotation Xrotation Yrotation
		JOINT RightKnee
		{
			OFFSET 0.000000 -0.402270 0.000000 
			CHANNELS 1 Zrotation
			JOINT RightAnkle
			{
				OFFSET 0.000000 -0.404085 0.000000 
				CHANNELS 3 Zrotation Xrotation Yrotation
				End Site
				{
					OFFSET 0.204105 -0.089430 0.008415 
				}
			}
		}
	}
	JOINT LeftHip
	{
		OFFSET 0.052140 -0.069960 -0.075570 
		CHANNELS 3 Zrotation Xrotation Yrotation
		JOINT LeftKnee
		{
			OFFSET 0.000000 -0.402270 0.000000 
			CHANNELS 1 Zrotation
			JOINT LeftAnkle
			{
				OFFSET 0.000000 -0.404085 0.000000 
				CHANNELS 3 Zrotation Xrotation Yrotation
				End Site
				{
					OFFSET 0.204105 -0.089430 -0.008415 
				}
			}
		}
	}
}
MOTION
Frames: 19
Frame Time: 0.02
0.54712 -0.36866 0.00487 -175.29535 -4.47418 -2.34743 14.47206 1.48671 -10.81583 -35.21439 10.69262 -2.11975 52.89195 -52.17057 45.69097 112.70012 79.022 27.92654 -3.33645 3.9523 1.49859 -50.0506 84.6109 -110.019 -17.76524 9.91915 84.84438 -17.24766 -7.90957 -88.39773 -10.44167 -3.88255 -4.33193 84.94468 16.09191 6.095 -95.09293 -8.36921 3.70768 4.13242
0.54723 -0.36895 0.00505 -175.34267 -4.46957 -2.56229 14.38767 1.49132 -11.01408 -35.42926 10.66226 -2.11975 53.49946 -53.54341 46.70061 113.74202 77.14288 27.79099 -3.58731 3.25088 1.01665 -49.5706 84.41229 -105.72284 -15.48544 9.55303 84.74528 -17.21701 -8.17737 -88.38286 -10.4238 -3.87491 -4.32675 85.05883 16.18532 5.85676 -95.1777 -8.36686 3.70359 4.13015
0.54709 -0.36936 0.00528 -175.39424 -4.55529 -2.81831 14.38951 1.58638 -11.29551 -35.59944 10.40546 -2.11975 54.45417 -55.32055 48.42136 115.23254 73.69599 27.53993 -4.0635 2.46716 0.59151 -48.75997 84.30655 -98.73639 -11.80139 8.95485 84.7214 -17.20537 -8.51166 -88.40976 -10.38982 -3.86409 -4.31899 85.28745 16.30285 5.56252 -95.3154 -8.36193 3.69809 4.12686
0.54706 -0.3697 0.00551 -175.45476 -4.59478 -3.0531 14.34994 1.64009 -11.5391 -35.79025 10.24883 -2.11975 55.22444 -56.8396 49.77284 116.45962 71.07237 27.32604 -4.42987 1.74556 0.16576 -48.12462 84.1695 -93.23719 -8.90126 8.48177 84.65885 -17.1804 -8.81536 -88.41533 -10.36333 -3.85464 -4.31238 85.45656 16.40875 5.29097 -95.42925 -8.35904 3.69398 4.12446
0.54706 -0.37008 0.00564 -175.47051 -4.65484 -3.29943 14.31766 1.69607 -11.78267 -35.98045 10.10186 -2.11975 56.08805 -58.67603 51.3075 117.93694 68.00082 27.15468 -4.82982 0.93351 -0.35891 -47.38775 83.98727 -86.67596 -5.41502 7.92968 84.61335 -17.1737 -9.12116 -88.43043 -10.33624 -3.84553 -4.30585 85.65632 16.51726 5.02877 -95.54283 -8.3527 3.68684 4.12033
0.54692 -0.37043 0.006 -175.57983 -4.69431 -3.53123 14.29181 1.76855 -12.04582 -36.16012 9.8812 -2.11975 56.84751 -59.94705 52.63229 118.99783 65.48829 26.87826 -5.21001 0.28514 -0.66734 -46.78143 83.92108 -81.65583 -2.79848 7.48457 84.55134 -17.13412 -9.43778 -88.43579 -10.30658 -3.83494 -4.29855 85.8201 16.62653 4.73551 -95.66924 -8.35277 3.68559 4.11951
0.54642 -0.37066 0.00698 -175.94909 -4.65122 -3.71209 14.25854 1.86214 -12.34603 -36.33279 9.51754 -2.11976 57.22801 -59.54753 53.22407 118.82962 64.82594 26.30991 -5.51182 0.10674 -0.38728 -46.62643 84.15011 -81.68511 -3.00637 7.40395 84.42012 -16.99824 -9.77311 -88.40356 -10.27322 -3.82102 -4.28978 85.85269 16.72694 4.35954 -95.81886 -8.37237 3.70138 4.12834
0.54578 -0.37085 0.00819 -176.41143 -4.58516 -3.87702 14.2298 1.96958 -12.66244 -36.49437 9.08614 -2.11976 57.49491 -58.56775 53.5786 118.22402 64.7885 25.64825 -5.78082 0.09415 0.10642 -46.61186 84.49296 -83.32741 -4.12014 7.43652 84.27082 -16.82901 -10.11609 -88.36022 -10.23792 -3.80571 -4.28035 85.84599 16.82791 3.95613 -95.97928 -8.39831 3.72307 4.14047
0.54521 -0.37106 0.0093 -176.82972 -4.53205 -4.04948 14.20186 2.07187 -12.96942 -36.65378 8.68382 -2.11976 57.82149 -57.85795 54.02967 117.79622 64.51464 25.05175 -6.04361 0.00527 0.49787 -46.52607 84.78524 -84.13536 -4.76396 7.4085 84.13346 -16.67576 -10.45222 -88.32238 -10.20383 -3.79103 -4.27123 85.85975 16.93232 3.57282 -96.13426 -8.4205 3.7418 4.15091
0.54461 -0.37129 0.01038 -177.25686 -4.47126 -4.22178 14.16467 2.17198 -13.28838 -36.84212 8.28409 -2.11976 58.12851 -57.12998 54.55116 117.46296 63.99541 24.35458 -6.40087 -0.08162 0.91333 -46.46026 85.07613 -85.27526 -5.60487 7.41013 83.98316 -16.51952 -10.80488 -88.28414 -10.16773 -3.77621 -4.26194 85.86618 17.02325 3.15654 -96.29362 -8.44612 3.76169 4.16212
0.54403 -0.37147 0.01159 -177.68597 -4.42012 -4.39057 14.14688 2.2794 -13.5847 -36.96809 7.86164 -2.11976 58.44148 -56.3041 54.86265 116.83511 64.14382 23.84679 -6.55383 -0.1331 1.32863 -46.3902 85.39545 -86.14504 -6.26899 7.38108 83.85432 -16.36153 -11.12411 -88.24346 -10.13563 -3.76143 -4.2529 85.87747 17.14049 2.80161 -96.4454 -8.46631 3.78055 4.17253
0.54349 -0.37151 0.0132 -178.11203 -4.39811 -4.54893 14.17945 2.39746 -13.81778 -36.9252 7.42956 -2.11976 58.8276 -55.28287 54.63028 115.39453 66.09456 23.88289 -6.12257 -0.12005 1.69176 -46.27825 85.76719 -85.85699 -6.22639 7.2305 83.79052 -16.20549 -11.34828 -88.19936 -10.1145 -3.74681 -4.2445 85.90711 17.3442 2.63683 -96.57602 -8.46832 3.79536 4.17997
0.54298 -0.37149 0.01493 -178.53427 -4.3865 -4.70476 14.23117 2.52302 -14.02632 -36.82 6.97103 -2.11976 59.21717 -54.1923 54.19546 113.68944 68.68277 24.11306 -5.49121 -0.07796 2.04694 -46.15821 86.16272 -85.25815 -5.98128 7.04799 83.74814 -16.04914 -11.53837 -88.15288 -10.09764 -3.73235 -4.23641 85.94299 17.57194 2.53281 -96.69791 -8.46492 3.80888 4.1865
0.54245 -0.3715 0.01658 -178.94878 -4.37209 -4.86486 14.27533 2.64878 -14.24378 -36.74315 6.50213 -2.11976 59.58375 -53.17691 53.86403 112.17382 70.91352 24.25716 -4.96843 -0.05376 2.40509 -46.04056 86.54581 -84.82631 -5.83357 6.88726 83.6949 -15.89357 -11.74424 -88.10688 -10.07925 -3.71804 -4.22831 85.97885 17.77902 2.39152 -96.82196 -8.46511 3.82284 4.19346
0.54191 -0.37152 0.01836 -179.40618 -4.34985 -5.01214 14.31565 2.76009 -14.47205 -36.66585 6.12627 -2.11977 60.03452 -51.9624 53.47617 110.35382 73.45041 24.39192 -4.36914 -0.00453 2.77344 -45.93234 86.94016 -84.33998 -5.69289 6.69969 83.64652 -15.7336 -11.94912 -88.06303 -10.05905 -3.70273 -4.21964 86.00269 18.02604 2.28832 -96.95412 -8.46086 3.83764 4.20052
0.54141 -0.3715 0.01988 -179.77254 -4.34535 -5.18463 14.36748 2.90279 -14.67083 -36.57471 5.54994 -2.11977 60.31533 -51.14715 53.16147 109.10688 75.49399 24.58974 -3.88336 -0.00206 3.11587 -45.80163 87.31478 -83.87302 -5.47911 6.55892 83.59247 -15.58386 -12.14795 -88.01429 -10.04366 -3.68955 -4.21223 86.05206 18.19709 2.12268 -97.0671 -8.46433 3.85028 4.20706
0.54099 -0.37137 0.0207 -179.88404 -4.39901 -5.43666 14.45465 3.13277 -14.80183 -36.46154 4.43943 -2.11977 60.09733 -51.50804 53.08977 109.5393 76.01258 24.94689 -3.74767 -0.14151 3.38739 -45.60331 87.63201 -83.5302 -5.10069 6.55566 83.52495 -15.45655 -12.33747 -87.95234 -10.04043 -3.68241 -4.2084 86.18344 18.13907 1.75191 -97.12943 -8.49174 3.85743 4.2126
0.5406 -0.3712 0.02126 -179.90425 -4.46824 -5.71254 14.55125 3.39353 -14.90254 -36.33629 3.12689 -2.11977 59.71288 -52.26428 53.09958 110.55247 76.01233 25.35529 -3.7347 -0.32862 3.63217 -45.3834 87.92737 -83.21166 -4.65416 6.5999 83.4498 -15.34081 -12.52215 -87.88554 -10.04193 -3.67737 -4.20582 86.33825 18.00612 1.31968 -97.17254 -8.52684 3.86237 4.21756
0.54021 -0.37105 0.02193 -179.96887 -4.52258 -5.97138 14.63799 3.6386 -15.01197 -36.21627 1.89763 -2.11977 59.42546 -52.80672 53.08116 111.2824 76.24943 25.71916 -3.67484 -0.49118 3.88909 -45.17753 88.23041 -82.87657 -4.24176 6.62159 83.3732 -15.22383 -12.70971 -87.82131 -10.04131 -3.67123 -4.20254 86.47369 17.91642 0.92748 -97.22446 -8.5575 3.86816 4.22259
